<?xml version="1.0" standalone="no"?><!DOCTYPE svg PUBLIC "-//W3C//DTD SVG 1.1//EN" "http://www.w3.org/Graphics/SVG/1.1/DTD/svg11.dtd"><svg t="1597063124145" class="icon" viewBox="0 0 1024 1024" version="1.1" xmlns="http://www.w3.org/2000/svg" p-id="4847" xmlns:xlink="http://www.w3.org/1999/xlink" width="200" height="200"><defs><style type="text/css"></style></defs><path d="M426.922156 501.269461 75.369261 501.269461c-41.389222 0-74.858283-33.469062-74.858283-74.858283L0.510978 74.858283c0-41.389222 33.469062-74.858283 74.858283-74.858283l351.552894 0c41.389222 0 74.858283 33.469062 74.858283 74.858283l0 351.552894C501.780439 467.54491 468.055888 501.269461 426.922156 501.269461zM75.369261 71.792415c-1.788423 0-3.065868 1.532934-3.065868 3.065868l0 351.552894c0 1.788423 1.532934 3.065868 3.065868 3.065868l351.552894 0c1.788423 0 3.065868-1.532934 3.065868-3.065868L429.988024 74.858283c0-1.788423-1.532934-3.065868-3.065868-3.065868L75.369261 71.792415z" p-id="4848" fill="#1296db"></path><path d="M426.922156 1021.700599 75.369261 1021.700599c-41.389222 0-74.858283-33.469062-74.858283-74.858283L0.510978 595.289421c0-41.389222 33.469062-74.858283 74.858283-74.858283l351.552894 0c41.389222 0 74.858283 33.469062 74.858283 74.858283l0 351.552894C501.780439 987.976048 468.055888 1021.700599 426.922156 1021.700599zM75.369261 591.968064c-1.788423 0-3.065868 1.532934-3.065868 3.065868l0 351.552894c0 1.788423 1.532934 3.065868 3.065868 3.065868l351.552894 0c1.788423 0 3.065868-1.532934 3.065868-3.065868L429.988024 595.289421c0-1.788423-1.532934-3.065868-3.065868-3.065868L75.369261 592.223553z" p-id="4849" fill="#1296db"></path><path d="M768 484.918164c-19.928144 0-38.834331-7.664671-52.886228-21.972056L555.433134 303.520958c-29.125749-29.125749-29.125749-76.646707 0-105.772455l159.680639-159.680639c29.125749-29.125749 76.646707-29.125749 105.772455 0l159.680639 159.680639c29.125749 29.125749 29.125749 76.646707 0 105.772455l-159.680639 159.680639C806.834331 477.253493 787.928144 484.918164 768 484.918164zM606.275449 252.934132l159.680639 159.680639c1.277445 1.277445 3.321357 1.277445 4.598802 0l159.680639-159.680639c1.277445-1.277445 1.277445-3.321357 0-4.598802L770.299401 88.91018c-1.277445-1.277445-3.321357-1.277445-4.598802 0l-159.680639 159.680639C604.998004 249.612774 604.998004 251.656687 606.275449 252.934132L606.275449 252.934132z" p-id="4850" fill="#1296db"></path><path d="M943.776447 1021.956088 592.223553 1021.956088c-41.389222 0-74.858283-33.469062-74.858283-74.858283L517.365269 595.800399c0-41.389222 33.469062-74.858283 74.858283-74.858283l351.552894 0c41.389222 0 74.858283 33.469062 74.858283 74.858283l0 351.552894C1018.634731 988.487026 984.91018 1021.956088 943.776447 1021.956088zM592.223553 592.479042c-1.788423 0-3.065868 1.532934-3.065868 3.065868l0 351.552894c0 1.788423 1.532934 3.065868 3.065868 3.065868l351.552894 0c1.788423 0 3.065868-1.532934 3.065868-3.065868L946.842315 595.800399c0-1.788423-1.532934-3.065868-3.065868-3.065868L592.223553 592.734531z" p-id="4851" fill="#1296db"></path></svg>